<svg width="34" height="33" viewBox="0 0 34 33" fill="none" xmlns="http://www.w3.org/2000/svg">
<path d="M9.91634 23.375H24.083V20.625H9.91634V23.375ZM16.9997 19.25L22.6663 13.75L20.683 11.825L18.4163 13.9562V8.25H15.583V13.9562L13.3163 11.825L11.333 13.75L16.9997 19.25ZM16.9997 30.25C15.04 30.25 13.1983 29.8888 11.4747 29.1665C9.75106 28.4442 8.25176 27.4647 6.97676 26.2281C5.70176 24.9906 4.69262 23.5354 3.94934 21.8625C3.20606 20.1896 2.83395 18.4021 2.83301 16.5C2.83301 14.5979 3.20512 12.8104 3.94934 11.1375C4.69356 9.46458 5.7027 8.00938 6.97676 6.77188C8.25176 5.53438 9.75106 4.55492 11.4747 3.8335C13.1983 3.11208 15.04 2.75092 16.9997 2.75C18.9594 2.75 20.8011 3.11117 22.5247 3.8335C24.2483 4.55583 25.7476 5.53529 27.0226 6.77188C28.2976 8.00938 29.3072 9.46458 30.0514 11.1375C30.7956 12.8104 31.1673 14.5979 31.1663 16.5C31.1663 18.4021 30.7942 20.1896 30.05 21.8625C29.3058 23.5354 28.2966 24.9906 27.0226 26.2281C25.7476 27.4656 24.2483 28.4455 22.5247 29.1679C20.8011 29.8902 18.9594 30.2509 16.9997 30.25Z" fill="black"/>
</svg>
